<mxfile host="app.diagrams.net" modified="2024-06-17T08:59:01.889Z" agent="Mozilla/5.0 (X11; Linux x86_64) AppleWebKit/537.36 (KHTML, like Gecko) Chrome/124.0.0.0 Safari/537.36" etag="MTBfWp8v4ag-9zzAn2FC" version="24.5.4" type="device">
  <diagram name="Page-1" id="5cvI5Q_MKqRNaeuEeQos">
    <mxGraphModel dx="790" dy="1150" grid="1" gridSize="10" guides="1" tooltips="1" connect="1" arrows="1" fold="1" page="1" pageScale="1" pageWidth="850" pageHeight="1100" math="0" shadow="0">
      <root>
        <mxCell id="0" />
        <mxCell id="1" parent="0" />
        <mxCell id="yw6CsYmsbvALQ7ipYBaF-1" value="CB-Data&lt;br&gt;Ports: 4123, 12345" style="shape=image;html=1;verticalAlign=top;verticalLabelPosition=bottom;labelBackgroundColor=#ffffff;imageAspect=0;aspect=fixed;image=https://cdn1.iconfinder.com/data/icons/social-media-2106/24/social_media_social_media_logo_docker-128.png" parent="1" vertex="1">
          <mxGeometry x="610" y="410" width="128" height="128" as="geometry" />
        </mxCell>
        <mxCell id="yw6CsYmsbvALQ7ipYBaF-3" value="CB-ModelDeployer&lt;br&gt;Ports: 4125, 12346" style="shape=image;html=1;verticalAlign=top;verticalLabelPosition=bottom;labelBackgroundColor=#ffffff;imageAspect=0;aspect=fixed;image=https://cdn1.iconfinder.com/data/icons/social-media-2106/24/social_media_social_media_logo_docker-128.png" parent="1" vertex="1">
          <mxGeometry x="610" y="60" width="128" height="128" as="geometry" />
        </mxCell>
        <mxCell id="yw6CsYmsbvALQ7ipYBaF-4" value="CB-UIServer&lt;div&gt;Ports: 4124, 3000&lt;/div&gt;" style="shape=image;html=1;verticalAlign=top;verticalLabelPosition=bottom;labelBackgroundColor=#ffffff;imageAspect=0;aspect=fixed;image=https://cdn1.iconfinder.com/data/icons/social-media-2106/24/social_media_social_media_logo_docker-128.png" parent="1" vertex="1">
          <mxGeometry x="260" y="486" width="128" height="128" as="geometry" />
        </mxCell>
        <mxCell id="wXwvWXCTqGgguGSXdqjQ-1" value="http: 4125" style="rounded=0;whiteSpace=wrap;html=1;" vertex="1" parent="1">
          <mxGeometry x="510" y="104" width="60" height="40" as="geometry" />
        </mxCell>
        <mxCell id="wXwvWXCTqGgguGSXdqjQ-2" value="" style="endArrow=classic;startArrow=classic;html=1;rounded=0;exitX=1;exitY=0.5;exitDx=0;exitDy=0;" edge="1" parent="1" source="wXwvWXCTqGgguGSXdqjQ-1" target="yw6CsYmsbvALQ7ipYBaF-3">
          <mxGeometry width="50" height="50" relative="1" as="geometry">
            <mxPoint x="500" y="340" as="sourcePoint" />
            <mxPoint x="450" y="330" as="targetPoint" />
          </mxGeometry>
        </mxCell>
        <mxCell id="wXwvWXCTqGgguGSXdqjQ-3" value="tcpServer: 12346" style="rounded=0;whiteSpace=wrap;html=1;" vertex="1" parent="1">
          <mxGeometry x="480" y="200" width="60" height="40" as="geometry" />
        </mxCell>
        <mxCell id="wXwvWXCTqGgguGSXdqjQ-4" value="" style="endArrow=classic;startArrow=classic;html=1;rounded=0;exitX=1;exitY=0.3;exitDx=0;exitDy=0;entryX=0;entryY=0.75;entryDx=0;entryDy=0;exitPerimeter=0;" edge="1" parent="1" source="wXwvWXCTqGgguGSXdqjQ-3" target="yw6CsYmsbvALQ7ipYBaF-3">
          <mxGeometry width="50" height="50" relative="1" as="geometry">
            <mxPoint x="580" y="134" as="sourcePoint" />
            <mxPoint x="620" y="134" as="targetPoint" />
          </mxGeometry>
        </mxCell>
        <mxCell id="wXwvWXCTqGgguGSXdqjQ-8" style="edgeStyle=orthogonalEdgeStyle;rounded=0;orthogonalLoop=1;jettySize=auto;html=1;exitX=0.5;exitY=0;exitDx=0;exitDy=0;entryX=1;entryY=1;entryDx=0;entryDy=0;" edge="1" parent="1" source="wXwvWXCTqGgguGSXdqjQ-5" target="yw6CsYmsbvALQ7ipYBaF-4">
          <mxGeometry relative="1" as="geometry" />
        </mxCell>
        <mxCell id="wXwvWXCTqGgguGSXdqjQ-5" value=".env" style="rounded=0;whiteSpace=wrap;html=1;" vertex="1" parent="1">
          <mxGeometry x="380" y="640" width="32" height="20" as="geometry" />
        </mxCell>
        <mxCell id="wXwvWXCTqGgguGSXdqjQ-7" style="edgeStyle=orthogonalEdgeStyle;rounded=0;orthogonalLoop=1;jettySize=auto;html=1;exitX=0.5;exitY=0;exitDx=0;exitDy=0;entryX=0.5;entryY=1;entryDx=0;entryDy=0;" edge="1" parent="1" source="wXwvWXCTqGgguGSXdqjQ-6" target="wXwvWXCTqGgguGSXdqjQ-5">
          <mxGeometry relative="1" as="geometry" />
        </mxCell>
        <mxCell id="wXwvWXCTqGgguGSXdqjQ-6" value="LST_TCP=CB-DATAIP:12345,CB-ModelDepIP:12346" style="rounded=0;whiteSpace=wrap;html=1;" vertex="1" parent="1">
          <mxGeometry x="305" y="720" width="182" height="60" as="geometry" />
        </mxCell>
        <mxCell id="wXwvWXCTqGgguGSXdqjQ-9" value="CLIENTSLST_TCPARRAYTOOTHERPODS" style="rounded=0;whiteSpace=wrap;html=1;" vertex="1" parent="1">
          <mxGeometry x="201" y="420" width="246" height="30" as="geometry" />
        </mxCell>
        <mxCell id="wXwvWXCTqGgguGSXdqjQ-10" value="" style="endArrow=classic;startArrow=classic;html=1;rounded=0;exitX=0.5;exitY=0;exitDx=0;exitDy=0;entryX=0.5;entryY=1;entryDx=0;entryDy=0;" edge="1" parent="1" source="yw6CsYmsbvALQ7ipYBaF-4" target="wXwvWXCTqGgguGSXdqjQ-9">
          <mxGeometry width="50" height="50" relative="1" as="geometry">
            <mxPoint x="550" y="550" as="sourcePoint" />
            <mxPoint x="600" y="500" as="targetPoint" />
          </mxGeometry>
        </mxCell>
        <mxCell id="wXwvWXCTqGgguGSXdqjQ-11" value="tcpServer: 12345" style="rounded=0;whiteSpace=wrap;html=1;" vertex="1" parent="1">
          <mxGeometry x="487" y="420" width="60" height="40" as="geometry" />
        </mxCell>
        <mxCell id="wXwvWXCTqGgguGSXdqjQ-12" value="" style="endArrow=classic;startArrow=classic;html=1;rounded=0;entryX=0;entryY=1;entryDx=0;entryDy=0;exitX=1;exitY=1;exitDx=0;exitDy=0;" edge="1" parent="1" source="wXwvWXCTqGgguGSXdqjQ-11" target="yw6CsYmsbvALQ7ipYBaF-1">
          <mxGeometry width="50" height="50" relative="1" as="geometry">
            <mxPoint x="500" y="340" as="sourcePoint" />
            <mxPoint x="550" y="290" as="targetPoint" />
          </mxGeometry>
        </mxCell>
        <mxCell id="wXwvWXCTqGgguGSXdqjQ-13" value="" style="endArrow=classic;startArrow=classic;html=1;rounded=0;exitX=0;exitY=0.5;exitDx=0;exitDy=0;entryX=1;entryY=0.5;entryDx=0;entryDy=0;" edge="1" parent="1" source="wXwvWXCTqGgguGSXdqjQ-11" target="wXwvWXCTqGgguGSXdqjQ-9">
          <mxGeometry width="50" height="50" relative="1" as="geometry">
            <mxPoint x="500" y="340" as="sourcePoint" />
            <mxPoint x="550" y="290" as="targetPoint" />
          </mxGeometry>
        </mxCell>
        <mxCell id="wXwvWXCTqGgguGSXdqjQ-14" value="" style="endArrow=classic;startArrow=classic;html=1;rounded=0;exitX=0.25;exitY=1;exitDx=0;exitDy=0;entryX=0.75;entryY=0;entryDx=0;entryDy=0;" edge="1" parent="1" source="wXwvWXCTqGgguGSXdqjQ-3" target="wXwvWXCTqGgguGSXdqjQ-9">
          <mxGeometry width="50" height="50" relative="1" as="geometry">
            <mxPoint x="130" y="280" as="sourcePoint" />
            <mxPoint x="284" y="430" as="targetPoint" />
          </mxGeometry>
        </mxCell>
        <mxCell id="wXwvWXCTqGgguGSXdqjQ-15" value="http: 4123" style="rounded=0;whiteSpace=wrap;html=1;" vertex="1" parent="1">
          <mxGeometry x="570" y="290" width="60" height="40" as="geometry" />
        </mxCell>
        <mxCell id="wXwvWXCTqGgguGSXdqjQ-16" value="" style="endArrow=classic;startArrow=classic;html=1;rounded=0;entryX=0.25;entryY=0;entryDx=0;entryDy=0;exitX=0.92;exitY=1.033;exitDx=0;exitDy=0;exitPerimeter=0;" edge="1" parent="1" source="wXwvWXCTqGgguGSXdqjQ-15" target="yw6CsYmsbvALQ7ipYBaF-1">
          <mxGeometry width="50" height="50" relative="1" as="geometry">
            <mxPoint x="115" y="240" as="sourcePoint" />
            <mxPoint x="120" y="188" as="targetPoint" />
          </mxGeometry>
        </mxCell>
        <mxCell id="wXwvWXCTqGgguGSXdqjQ-17" value="" style="endArrow=classic;startArrow=classic;html=1;rounded=0;entryX=0;entryY=1;entryDx=0;entryDy=0;exitX=0.615;exitY=0.054;exitDx=0;exitDy=0;exitPerimeter=0;" edge="1" parent="1" source="wXwvWXCTqGgguGSXdqjQ-15" target="yw6CsYmsbvALQ7ipYBaF-3">
          <mxGeometry width="50" height="50" relative="1" as="geometry">
            <mxPoint x="520" y="400" as="sourcePoint" />
            <mxPoint x="580" y="170" as="targetPoint" />
          </mxGeometry>
        </mxCell>
        <mxCell id="wXwvWXCTqGgguGSXdqjQ-21" style="edgeStyle=orthogonalEdgeStyle;rounded=0;orthogonalLoop=1;jettySize=auto;html=1;exitX=0;exitY=0.5;exitDx=0;exitDy=0;" edge="1" parent="1" source="wXwvWXCTqGgguGSXdqjQ-19" target="yw6CsYmsbvALQ7ipYBaF-1">
          <mxGeometry relative="1" as="geometry" />
        </mxCell>
        <mxCell id="wXwvWXCTqGgguGSXdqjQ-19" value="cache:data.csv" style="rounded=0;whiteSpace=wrap;html=1;" vertex="1" parent="1">
          <mxGeometry x="770" y="459" width="80" height="30" as="geometry" />
        </mxCell>
        <mxCell id="wXwvWXCTqGgguGSXdqjQ-22" value="&lt;b&gt;&lt;u&gt;&lt;font style=&quot;font-size: 20px;&quot;&gt;Developer mode - POC&lt;/font&gt;&lt;/u&gt;&lt;/b&gt;" style="text;html=1;align=center;verticalAlign=middle;whiteSpace=wrap;rounded=0;" vertex="1" parent="1">
          <mxGeometry x="297" width="250" height="30" as="geometry" />
        </mxCell>
        <mxCell id="wXwvWXCTqGgguGSXdqjQ-23" value="Clicks buttons" style="shape=umlActor;verticalLabelPosition=bottom;verticalAlign=top;html=1;outlineConnect=0;" vertex="1" parent="1">
          <mxGeometry x="70" y="640" width="30" height="60" as="geometry" />
        </mxCell>
        <mxCell id="wXwvWXCTqGgguGSXdqjQ-24" value="Browser/Frontend react in developer mode on port 3000" style="rounded=0;whiteSpace=wrap;html=1;" vertex="1" parent="1">
          <mxGeometry x="25" y="540" width="120" height="60" as="geometry" />
        </mxCell>
        <mxCell id="wXwvWXCTqGgguGSXdqjQ-25" value="" style="endArrow=classic;startArrow=classic;html=1;rounded=0;exitX=0.5;exitY=1;exitDx=0;exitDy=0;" edge="1" parent="1" source="wXwvWXCTqGgguGSXdqjQ-24" target="wXwvWXCTqGgguGSXdqjQ-23">
          <mxGeometry width="50" height="50" relative="1" as="geometry">
            <mxPoint x="90" y="670" as="sourcePoint" />
            <mxPoint x="140" y="620" as="targetPoint" />
          </mxGeometry>
        </mxCell>
        <mxCell id="wXwvWXCTqGgguGSXdqjQ-26" value="http/ws: 4124" style="rounded=0;whiteSpace=wrap;html=1;" vertex="1" parent="1">
          <mxGeometry x="60" y="420" width="85" height="30" as="geometry" />
        </mxCell>
        <mxCell id="wXwvWXCTqGgguGSXdqjQ-27" value="" style="endArrow=classic;startArrow=classic;html=1;rounded=0;entryX=0.25;entryY=1;entryDx=0;entryDy=0;exitX=0.5;exitY=0;exitDx=0;exitDy=0;" edge="1" parent="1" source="wXwvWXCTqGgguGSXdqjQ-24" target="wXwvWXCTqGgguGSXdqjQ-26">
          <mxGeometry width="50" height="50" relative="1" as="geometry">
            <mxPoint x="110" y="590" as="sourcePoint" />
            <mxPoint x="160" y="540" as="targetPoint" />
          </mxGeometry>
        </mxCell>
        <mxCell id="wXwvWXCTqGgguGSXdqjQ-28" value="" style="endArrow=classic;startArrow=classic;html=1;rounded=0;entryX=0;entryY=0.5;entryDx=0;entryDy=0;exitX=0.974;exitY=0.973;exitDx=0;exitDy=0;exitPerimeter=0;" edge="1" parent="1" source="wXwvWXCTqGgguGSXdqjQ-26" target="yw6CsYmsbvALQ7ipYBaF-4">
          <mxGeometry width="50" height="50" relative="1" as="geometry">
            <mxPoint x="150" y="560" as="sourcePoint" />
            <mxPoint x="200" y="510" as="targetPoint" />
          </mxGeometry>
        </mxCell>
        <mxCell id="wXwvWXCTqGgguGSXdqjQ-30" value="reverseProxy" style="rounded=0;whiteSpace=wrap;html=1;" vertex="1" parent="1">
          <mxGeometry x="201" y="390" width="120" height="10" as="geometry" />
        </mxCell>
        <mxCell id="wXwvWXCTqGgguGSXdqjQ-31" value="" style="endArrow=classic;startArrow=classic;html=1;rounded=0;exitX=1;exitY=0;exitDx=0;exitDy=0;entryX=0;entryY=0.5;entryDx=0;entryDy=0;" edge="1" parent="1" source="wXwvWXCTqGgguGSXdqjQ-26" target="wXwvWXCTqGgguGSXdqjQ-30">
          <mxGeometry width="50" height="50" relative="1" as="geometry">
            <mxPoint x="210" y="380" as="sourcePoint" />
            <mxPoint x="260" y="330" as="targetPoint" />
          </mxGeometry>
        </mxCell>
        <mxCell id="wXwvWXCTqGgguGSXdqjQ-32" value="" style="endArrow=classic;startArrow=classic;html=1;rounded=0;entryX=1;entryY=0.5;entryDx=0;entryDy=0;" edge="1" parent="1" source="wXwvWXCTqGgguGSXdqjQ-15" target="wXwvWXCTqGgguGSXdqjQ-30">
          <mxGeometry width="50" height="50" relative="1" as="geometry">
            <mxPoint x="210" y="380" as="sourcePoint" />
            <mxPoint x="260" y="330" as="targetPoint" />
          </mxGeometry>
        </mxCell>
        <mxCell id="wXwvWXCTqGgguGSXdqjQ-33" value="Random mutation hill climbing - poc of neural network can improve steps:" style="text;html=1;align=center;verticalAlign=middle;whiteSpace=wrap;rounded=0;" vertex="1" parent="1">
          <mxGeometry x="41" y="30" width="160" height="30" as="geometry" />
        </mxCell>
        <mxCell id="wXwvWXCTqGgguGSXdqjQ-34" value="1 - mount data to CB-DATA" style="rounded=0;whiteSpace=wrap;html=1;" vertex="1" parent="1">
          <mxGeometry x="41" y="86" width="147" height="30" as="geometry" />
        </mxCell>
        <mxCell id="wXwvWXCTqGgguGSXdqjQ-35" value="2 - create folder to CB-DATA" style="rounded=0;whiteSpace=wrap;html=1;" vertex="1" parent="1">
          <mxGeometry x="41" y="116" width="147" height="30" as="geometry" />
        </mxCell>
        <mxCell id="wXwvWXCTqGgguGSXdqjQ-40" style="edgeStyle=orthogonalEdgeStyle;rounded=0;orthogonalLoop=1;jettySize=auto;html=1;exitX=0.5;exitY=1;exitDx=0;exitDy=0;entryX=0.5;entryY=0;entryDx=0;entryDy=0;" edge="1" parent="1" source="wXwvWXCTqGgguGSXdqjQ-36" target="wXwvWXCTqGgguGSXdqjQ-37">
          <mxGeometry relative="1" as="geometry" />
        </mxCell>
        <mxCell id="wXwvWXCTqGgguGSXdqjQ-36" value="3 - set as main project to CB-DATA" style="rounded=0;whiteSpace=wrap;html=1;" vertex="1" parent="1">
          <mxGeometry x="41" y="146" width="147" height="30" as="geometry" />
        </mxCell>
        <mxCell id="wXwvWXCTqGgguGSXdqjQ-37" value="4 - Select project path n data and then press initialize to CB-Model" style="rounded=0;whiteSpace=wrap;html=1;" vertex="1" parent="1">
          <mxGeometry x="233" y="86" width="147" height="50" as="geometry" />
        </mxCell>
        <mxCell id="wXwvWXCTqGgguGSXdqjQ-38" value="5 - Evaluate models and select splitting of data 70/30 default to CB-Model" style="rounded=0;whiteSpace=wrap;html=1;" vertex="1" parent="1">
          <mxGeometry x="233" y="136" width="147" height="50" as="geometry" />
        </mxCell>
        <mxCell id="wXwvWXCTqGgguGSXdqjQ-42" style="edgeStyle=orthogonalEdgeStyle;rounded=0;orthogonalLoop=1;jettySize=auto;html=1;exitX=0.5;exitY=1;exitDx=0;exitDy=0;entryX=0.5;entryY=0;entryDx=0;entryDy=0;" edge="1" parent="1" source="wXwvWXCTqGgguGSXdqjQ-39" target="wXwvWXCTqGgguGSXdqjQ-41">
          <mxGeometry relative="1" as="geometry" />
        </mxCell>
        <mxCell id="wXwvWXCTqGgguGSXdqjQ-39" value="6 - Select top performing models to CB-Model" style="rounded=0;whiteSpace=wrap;html=1;" vertex="1" parent="1">
          <mxGeometry x="233" y="186" width="147" height="50" as="geometry" />
        </mxCell>
        <mxCell id="wXwvWXCTqGgguGSXdqjQ-41" value="7 - Mutate for next generation" style="rounded=0;whiteSpace=wrap;html=1;" vertex="1" parent="1">
          <mxGeometry x="47.5" y="260" width="147" height="50" as="geometry" />
        </mxCell>
        <mxCell id="wXwvWXCTqGgguGSXdqjQ-43" value="8 - Try and loop and repeat the process seeing if the models improve" style="rounded=0;whiteSpace=wrap;html=1;" vertex="1" parent="1">
          <mxGeometry x="47.5" y="310" width="147" height="50" as="geometry" />
        </mxCell>
      </root>
    </mxGraphModel>
  </diagram>
</mxfile>
